<svg width="22" height="24" viewBox="0 0 22 24" fill="none" xmlns="http://www.w3.org/2000/svg">
<path d="M16.8 0C16.14 0 15.6 0.54 15.6 1.2V2.4H6V1.2C6 0.54 5.46 0 4.8 0C4.14 0 3.6 0.54 3.6 1.2V2.4H2.4C1.068 2.4 0.012 3.48 0.012 4.8L0 21.6C0 22.2365 0.252856 22.847 0.702944 23.2971C1.15303 23.7471 1.76348 24 2.4 24H19.2C20.52 24 21.6 22.92 21.6 21.6V4.8C21.6 3.48 20.52 2.4 19.2 2.4H18V1.2C18 0.54 17.46 0 16.8 0ZM19.2 21.6H2.4V9.6H19.2V21.6ZM9.6 13.2C9.6 12.54 10.14 12 10.8 12C11.46 12 12 12.54 12 13.2C12 13.86 11.46 14.4 10.8 14.4C10.14 14.4 9.6 13.86 9.6 13.2ZM4.8 13.2C4.8 12.54 5.34 12 6 12C6.66 12 7.2 12.54 7.2 13.2C7.2 13.86 6.66 14.4 6 14.4C5.34 14.4 4.8 13.86 4.8 13.2ZM14.4 13.2C14.4 12.54 14.94 12 15.6 12C16.26 12 16.8 12.54 16.8 13.2C16.8 13.86 16.26 14.4 15.6 14.4C14.94 14.4 14.4 13.86 14.4 13.2ZM9.6 18C9.6 17.34 10.14 16.8 10.8 16.8C11.46 16.8 12 17.34 12 18C12 18.66 11.46 19.2 10.8 19.2C10.14 19.2 9.6 18.66 9.6 18ZM4.8 18C4.8 17.34 5.34 16.8 6 16.8C6.66 16.8 7.2 17.34 7.2 18C7.2 18.66 6.66 19.2 6 19.2C5.34 19.2 4.8 18.66 4.8 18ZM14.4 18C14.4 17.34 14.94 16.8 15.6 16.8C16.26 16.8 16.8 17.34 16.8 18C16.8 18.66 16.26 19.2 15.6 19.2C14.94 19.2 14.4 18.66 14.4 18Z" fill="#651EBC"/>
</svg>
