<svg width="24" height="24" viewBox="0 0 24 24" fill="none" xmlns="http://www.w3.org/2000/svg">
<path d="M23.9687 15.8146C23.4553 14.3371 22.9404 12.8577 22.4271 11.3772L21.9598 10.0384C21.4725 10.0381 20.9961 9.89423 20.5901 9.6248C20.1841 9.35537 19.8664 8.9723 19.6768 8.52344C16.7139 9.55356 13.7526 10.5844 10.7897 11.6131C9.03205 12.2236 7.27293 12.8359 5.51343 13.4483C5.63757 13.8986 5.63205 14.3749 5.49751 14.8222C5.36298 15.2695 5.10488 15.6698 4.75293 15.9769C5.19468 17.2497 5.63605 18.5221 6.0793 19.7948C6.31518 20.4743 6.55068 21.1512 6.7858 21.8311C7.13229 21.8472 7.47153 21.9359 7.78159 22.0914C8.09165 22.2468 8.36563 22.4657 8.5858 22.7337C11.6297 21.6754 14.6717 20.6183 17.7152 19.5597C19.4833 18.9443 21.2559 18.3293 23.0286 17.7139C23.0352 17.3474 23.1229 16.987 23.2854 16.6584C23.448 16.3299 23.6813 16.0414 23.9687 15.8138" fill="#83E7FE" fill-opacity="0.2"/>
<path d="M23.5764 15.6258C23.0616 14.1468 22.5459 12.667 22.0322 11.185L21.5661 9.84703C21.0791 9.84679 20.6031 9.70292 20.1975 9.43344C19.792 9.16396 19.4749 8.78084 19.2861 8.33203C16.3232 9.36216 13.3603 10.3923 10.3974 11.4217C8.63896 12.0338 6.88021 12.6452 5.12118 13.2558C5.2456 13.7066 5.23985 14.1835 5.10461 14.6313C4.96936 15.079 4.71015 15.4793 4.35693 15.7859C4.80018 17.0587 5.24418 18.3325 5.68556 19.6053C5.92106 20.2822 6.15693 20.9602 6.39281 21.64C6.73913 21.6565 7.07816 21.7453 7.38806 21.9007C7.69796 22.0562 7.97184 22.2749 8.19206 22.5427C11.2356 21.4859 14.2794 20.4269 17.3199 19.3702C19.0926 18.7533 20.8637 18.1383 22.6348 17.521C22.6419 17.155 22.73 16.7951 22.8928 16.4672C23.0556 16.1393 23.2891 15.8515 23.5764 15.6247" fill="#651EBC"/>
<path d="M5.01232 14.875C4.86778 15.2264 4.64319 15.5392 4.35645 15.7885L6.3927 21.6423C6.73901 21.6587 7.07805 21.7475 7.38794 21.9029C7.69784 22.0584 7.97173 22.2771 8.19195 22.5449L22.6347 17.5233C22.6387 17.3076 22.6725 17.0936 22.7352 16.8873C20.4893 17.6223 10.8132 20.7348 5.0127 14.875" fill="#CBBEDF"/>
<path d="M20.9203 16.7243L9.14226 20.8189C8.96864 20.8789 8.80664 20.8294 8.76351 20.7019L6.64326 14.601C6.63336 14.5714 6.63044 14.54 6.63474 14.5091C6.63903 14.4782 6.65042 14.4487 6.66801 14.4229L6.67626 14.3794L6.72126 14.3614C6.75501 14.3269 6.80676 14.2969 6.86864 14.2759L18.6433 10.1816C18.8169 10.1216 18.9815 10.1711 19.0235 10.2964L21.1449 16.3976C21.1899 16.5236 21.0924 16.6646 20.9203 16.7243ZM9.00089 20.5793C9.01949 20.5773 9.03784 20.5734 9.05564 20.5676L20.8336 16.4726C20.8511 16.467 20.8678 16.4591 20.8831 16.449L18.7884 10.4228C18.7695 10.4236 18.7509 10.4274 18.7333 10.434L6.95676 14.529C6.94149 14.533 6.92685 14.539 6.91326 14.547L6.90801 14.5605L9.00089 20.5793Z" fill="#CBBEDF"/>
<path d="M7.58643 14.0272L7.86918 13.9282L10.0667 20.2154L9.78355 20.314L7.58643 14.0272ZM19.9498 16.9195L19.6686 17.017L17.4827 10.7257L17.7598 10.6289L19.9498 16.9195Z" fill="#CBBEDF"/>
<path d="M23.0174 7.48483C21.7151 6.02158 20.4112 4.55795 19.1069 3.0932C18.7132 2.6507 18.3179 2.20933 17.9261 1.76758C17.3626 2.00134 16.7428 2.06377 16.1441 1.94704C15.5454 1.83031 14.9944 1.53962 14.5601 1.11133C11.6289 3.72351 8.69717 6.33501 5.76481 8.94583L0.544434 13.597C0.903842 14.0583 1.1257 14.6118 1.18448 15.1936C1.24325 15.7755 1.13656 16.3622 0.876684 16.8861C1.99718 18.1465 3.11806 19.4042 4.24156 20.6661C4.83968 21.3385 5.43706 22.009 6.03443 22.6813C6.4426 22.5337 6.8772 22.4735 7.31012 22.5044C7.74305 22.5353 8.16466 22.6568 8.54768 22.861C11.5627 20.1801 14.5702 17.4985 17.5814 14.8157C19.3349 13.2557 21.0881 11.6942 22.8389 10.1331C22.6713 9.70606 22.6002 9.24723 22.6308 8.7895C22.6614 8.33176 22.7929 7.88648 23.0159 7.48558" fill="#83E7FE" fill-opacity="0.2"/>
<path d="M22.473 7.4547L18.5595 3.06045C18.1672 2.62133 17.7735 2.1777 17.3782 1.73633C16.8153 1.96981 16.1961 2.03209 15.598 1.91536C14.9998 1.79863 14.4494 1.50808 14.0156 1.08008L5.22037 8.91383C3.48 10.4648 1.74112 12.0147 0 13.5642C0.359681 14.0261 0.581443 14.5802 0.6397 15.1628C0.697957 15.7453 0.590335 16.3324 0.32925 16.8563C1.45125 18.1152 2.57475 19.3745 3.69487 20.6363C4.293 21.3053 4.89112 21.9773 5.48962 22.6497C5.89796 22.5024 6.33267 22.4423 6.76566 22.4735C7.19864 22.5047 7.62026 22.6265 8.00325 22.8308C11.0145 20.1496 14.0257 17.4665 17.037 14.7852C18.7901 13.2237 20.5436 11.6622 22.2945 10.1011C22.1269 9.67466 22.0559 9.21636 22.0867 8.7592C22.1175 8.30204 22.2493 7.85741 22.4726 7.45733" fill="#651EBC"/>
<path d="M19.9313 9.99542L8.27628 20.3762C8.10565 20.5273 7.89453 20.5502 7.7824 20.4242L2.4049 14.3867C2.37963 14.3569 2.36149 14.3217 2.35187 14.2838C2.34225 14.2459 2.34141 14.2063 2.3494 14.168L2.3374 14.114L2.3809 14.072C2.4034 14.0169 2.4484 13.9565 2.50953 13.9014L14.1645 3.52255C14.3367 3.37067 14.5493 3.34892 14.6592 3.47305L20.0378 9.51055C20.1484 9.63542 20.1038 9.84355 19.9328 9.99617M7.99915 20.1662C8.02015 20.1558 8.03969 20.1427 8.05728 20.1272L19.7123 9.74642C19.7303 9.73128 19.7459 9.7136 19.7588 9.69392L14.4473 3.72955C14.4259 3.73963 14.4063 3.75305 14.3892 3.7693L2.73415 14.1493C2.71278 14.1673 2.70265 14.1808 2.69365 14.1924V14.2104L7.9999 20.1662" fill="#CBBEDF"/>
<path d="M3.22363 13.2684L3.50226 13.0198L9.05413 19.2373L8.77588 19.4863L3.22363 13.2684ZM13.0715 4.7158L13.3498 4.4668L18.9061 10.6813L18.6275 10.9303L13.0715 4.7158Z" fill="#CBBEDF"/>
</svg>
