<svg width="24" height="24" viewBox="0 0 24 24" fill="none" xmlns="http://www.w3.org/2000/svg">
<g clip-path="url(#clip0_342_2097)">
<path d="M12 23.9998C18.6274 23.9998 23.9999 18.6273 23.9999 11.9999C23.9999 5.37254 18.6274 0 12 0C5.37266 0 0.00012207 5.37254 0.00012207 11.9999C0.00012207 18.6273 5.37266 23.9998 12 23.9998Z" fill="#55ACEE"/>
<path d="M19.3504 8.62436C18.8269 8.85632 18.2716 9.00839 17.7029 9.0755C18.302 8.71724 18.7503 8.15334 18.9643 7.48893C18.4013 7.82302 17.7853 8.05837 17.1429 8.18478C16.8744 7.89849 16.5501 7.67039 16.1898 7.51463C15.8296 7.35887 15.4412 7.27877 15.0487 7.2793C13.4649 7.2793 12.1804 8.56383 12.1804 10.1476C12.1804 10.3724 12.2059 10.5913 12.2551 10.8013C9.87126 10.6817 7.75762 9.53989 6.34283 7.80402C6.0877 8.24178 5.95363 8.73952 5.95437 9.2462C5.95437 10.2411 6.46112 11.1194 7.23034 11.6336C6.77481 11.6196 6.32931 11.4964 5.93126 11.2745L5.93105 11.3109C5.93105 12.7006 6.92017 13.8598 8.23207 14.1231C7.98586 14.1903 7.73176 14.2242 7.47655 14.2239C7.2913 14.2239 7.11183 14.2061 6.93685 14.1727C7.30178 15.312 8.36085 16.1414 9.61628 16.1647C8.60017 16.9622 7.34531 17.3946 6.05362 17.3925C5.8226 17.3925 5.59371 17.379 5.36975 17.3523C6.681 18.1953 8.20736 18.6428 9.76623 18.6411C15.0421 18.6411 17.9273 14.2705 17.9273 10.4798C17.9273 10.3555 17.9245 10.2317 17.919 10.1089C18.4807 9.70326 18.9655 9.20052 19.3504 8.62436V8.62436Z" fill="#F1F2F2"/>
</g>
<defs>
<clipPath id="clip0_342_2097">
<rect width="24" height="24" fill="white"/>
</clipPath>
</defs>
</svg>
