<svg width="19" height="23" viewBox="0 0 19 23" fill="none" xmlns="http://www.w3.org/2000/svg">
<path d="M9.50004 11.5001C10.1067 11.5001 10.6261 11.2839 11.0585 10.8516C11.4901 10.42 11.7059 9.90085 11.7059 9.29423C11.7059 8.68761 11.4901 8.16813 11.0585 7.73578C10.6261 7.30416 10.1067 7.08835 9.50004 7.08835C8.89342 7.08835 8.37431 7.30416 7.94269 7.73578C7.51034 8.16813 7.29416 8.68761 7.29416 9.29423C7.29416 9.90085 7.51034 10.42 7.94269 10.8516C8.37431 11.2839 8.89342 11.5001 9.50004 11.5001ZM9.50004 22.5295C6.54048 20.0111 4.33019 17.6718 2.86916 15.5115C1.4074 13.352 0.676514 11.3531 0.676514 9.51482C0.676514 6.75747 1.56365 4.56078 3.33791 2.92475C5.11144 1.28872 7.16548 0.470703 9.50004 0.470703C11.8346 0.470703 13.8886 1.28872 15.6622 2.92475C17.4364 4.56078 18.3236 6.75747 18.3236 9.51482C18.3236 11.3531 17.5931 13.352 16.132 15.5115C14.6703 17.6718 12.4596 20.0111 9.50004 22.5295Z" fill="#651EBC"/>
</svg>
