<svg width="144" height="27" viewBox="0 0 144 27" fill="none" xmlns="http://www.w3.org/2000/svg">
<path d="M20.086 10.718C20.086 4.816 15.822 1.098 10.05 1.098C4.304 1.098 0.0400001 4.816 0.0400001 10.718C0.0400001 16.542 4.304 20.494 10.05 20.494C15.822 20.494 20.086 16.542 20.086 10.718ZM15.328 10.718C15.328 14.046 13.144 16.438 10.05 16.438C6.956 16.438 4.798 14.046 4.798 10.718C4.798 7.494 6.93 5.102 10.05 5.102C13.17 5.102 15.328 7.494 15.328 10.718ZM35.4152 20V7.052H31.1512V14.046C31.1512 15.528 30.3452 16.828 28.8632 16.828C27.3032 16.828 26.9392 15.528 26.9392 14.072V7.052H22.6492V15.06C22.6492 17.66 23.8712 20.364 27.3552 20.364C29.1752 20.364 30.6572 19.35 31.2552 18.206H31.3072V20H35.4152ZM46.4199 10.25V7.052H43.3779V3.646H39.1919V7.052H37.1379V10.25H39.2179V15.71C39.2179 18.466 40.3619 20.312 43.8199 20.312C44.7299 20.312 45.7179 20.13 46.2899 19.922L46.2379 16.802C45.9259 16.932 45.4059 17.01 44.9899 17.01C43.7679 17.01 43.3779 16.386 43.3779 15.19V10.25H46.4199ZM58.3818 8.456C57.1078 7.26 55.1058 6.636 53.1818 6.636C50.7118 6.636 47.7998 7.884 47.7998 10.978C47.7998 13.422 49.7758 14.332 51.5698 14.748C53.3378 15.164 54.1438 15.424 54.1438 16.23C54.1438 17.062 53.3118 17.348 52.6098 17.348C51.3618 17.348 50.1918 16.724 49.4378 15.892L47.0458 18.414C48.3978 19.714 50.5818 20.416 52.6878 20.416C55.3398 20.416 58.2258 19.272 58.2258 15.996C58.2258 13.474 56.0678 12.486 54.0918 12.044C52.4278 11.68 51.7258 11.472 51.7258 10.744C51.7258 9.99 52.5318 9.704 53.3378 9.704C54.3778 9.704 55.3658 10.224 56.0418 10.874L58.3818 8.456ZM65.3154 2.918C65.3154 1.618 64.2234 0.577999 62.8714 0.577999C61.4934 0.577999 60.4274 1.67 60.4274 2.918C60.4274 4.192 61.4934 5.258 62.8714 5.258C64.2234 5.258 65.3154 4.244 65.3154 2.918ZM65.0034 20V7.052H60.7394V20H65.0034ZM82.1088 20V0.343999H77.8448V8.43H77.7928C77.0648 7.572 75.7388 6.688 73.8408 6.688C70.0708 6.688 67.7308 9.86 67.7308 13.474C67.7308 17.088 69.9928 20.364 73.8928 20.364C75.6088 20.364 77.2988 19.61 78.1308 18.31H78.1828V20H82.1088ZM78.0268 13.5C78.0268 15.19 76.8308 16.828 74.9068 16.828C72.8788 16.828 71.8388 15.164 71.8388 13.474C71.8388 11.81 72.8788 10.172 74.9068 10.172C76.8308 10.172 78.0268 11.862 78.0268 13.5ZM88.9261 12.044C89.0301 10.718 90.2261 9.574 91.8641 9.574C93.5541 9.574 94.4121 10.692 94.4121 12.044H88.9261ZM98.3381 13.682C98.3381 9.262 95.6601 6.636 91.8381 6.636C87.9121 6.636 84.8441 9.34 84.8441 13.578C84.8441 17.946 88.0681 20.416 91.9681 20.416C94.5941 20.416 96.6221 19.428 97.8441 17.66L94.8801 15.788C94.3081 16.568 93.3721 17.14 92.0201 17.14C90.4861 17.14 89.0561 16.126 88.9261 14.696H98.3121C98.3381 14.384 98.3381 14.02 98.3381 13.682ZM105.844 17.712C105.844 16.282 104.648 15.164 103.244 15.164C101.788 15.164 100.592 16.334 100.592 17.738C100.592 19.168 101.814 20.26 103.244 20.26C104.648 20.26 105.844 19.142 105.844 17.712ZM125.755 20V1.592H121.439L121.543 13.604H121.465L114.081 1.592H109.011V20H113.327L113.223 7.962H113.301L120.711 20H125.755ZM143.046 18.778V7.052H139.016V8.716H138.964C138.054 7.338 136.442 6.688 134.83 6.688C130.93 6.688 128.668 9.886 128.668 13.474C128.668 17.062 130.93 20.13 134.856 20.13C136.572 20.13 137.976 19.454 138.782 18.414H138.86V19.194C138.86 21.352 137.69 22.808 135.194 22.808C133.738 22.808 132.152 22.262 130.904 21.17L128.772 24.212C130.514 25.512 133.166 26.24 135.428 26.24C140.03 26.24 143.046 23.848 143.046 18.778ZM138.99 13.448C138.99 15.216 137.794 16.75 135.844 16.75C133.92 16.75 132.802 15.164 132.802 13.448C132.802 11.654 133.92 10.172 135.844 10.172C137.768 10.172 138.99 11.68 138.99 13.448Z" fill="#651EBC"/>
</svg>
